<?xml version="1.0" encoding="UTF-8" standalone="no"?>
<svg viewBox="0 0 352.98703 352.94946" xmlns="http://www.w3.org/2000/svg">
  <defs>
    <linearGradient
      x1="173.731"
      y1="197.35899"
      x2="173.744"
      y2="197.36301"
      gradientUnits="userSpaceOnUse"
      gradientTransform="matrix(24.975,0,0,-24.975,1053.75,8373.31)"
      spreadMethod="pad"
    ><stop
        style="stop-opacity:1;stop-color:#005419"
        offset="0" /><stop
        style="stop-opacity:1;stop-color:#6ec633"
        offset="0.772879" /><stop
        style="stop-opacity:1;stop-color:#b9e553"
        offset="0.978567" /><stop
        style="stop-opacity:1;stop-color:#b9e553"
        offset="1" /></linearGradient>
    <clipPath
       clipPathUnits="userSpaceOnUse"
       id="clipPath40"><path
         d="M 4885.04,5948.05 C 4089.06,5998.09 3430.23,5340.08 3478.83,4544.41 3520,3870.74 4072.54,3331.09 4746.95,3304.45 c 232.58,-9.22 481.64,58.48 608.52,140 654.96,420.86 436.09,1117.85 330.08,1390.51 -106.06,272.74 -4.81,387.23 -4.81,387.23 -493.01,121.25 -588.12,-204.3 -590,-295 -60.51,117.73 -170.82,243.12 -503.63,286.56 -348.48,45.43 -348.48,348.48 -348.48,348.48 0,0 -362.11,-198.36 -265.15,-689.38 57.85,-293.05 302.73,-427.3 494.92,-488.28 -271.45,5.08 -494.92,-140.51 -494.92,-140.51 128.79,-431.79 590.7,-372.3 866.13,-286.6 340.9,106.06 474.73,-92.15 474.73,-92.15 -31.57,637.58 -748.36,883.24 -748.36,883.24 692.3,-85.27 863.79,-497.77 883.36,-836.48 13.2,-228.55 -139.22,-436.91 -361.84,-490.31 -122.11,-29.3 -251.21,-40.43 -384.38,-30.16 -599.72,46.17 -1085.74,526.41 -1137.61,1125.67 -66.68,770.58 576.72,1412.73 1347.69,1343.94 604.57,-53.91 1085.82,-549.61 1123.56,-1155.43 15.12,-242.3 -40.04,-470.94 -146.84,-667.66 -22.97,-42.34 -42.77,-86.28 -61.29,-130.78 -39.53,-94.76 -96.95,-192.85 -177.26,-292.77 307.42,258.91 495.9,654.69 469.96,1092.66 -39.3,662.42 -573.99,1199.22 -1236.29,1240.82 z"
       /></clipPath>
    <linearGradient
       x1="106.952"
       y1="138.375"
       x2="200.089"
       y2="163.515"
       gradientUnits="userSpaceOnUse"
       gradientTransform="matrix(24.975,0,0,-24.975,1053.75,8373.31)"
       spreadMethod="pad"
       id="linearGradient50"><stop
         style="stop-opacity:1;stop-color:#005419"
         offset="0" /><stop
         style="stop-opacity:1;stop-color:#6ec633"
         offset="0.772879" /><stop
         style="stop-opacity:1;stop-color:#b9e553"
         offset="0.978567" /><stop
         style="stop-opacity:1;stop-color:#b9e553"
         offset="1" /></linearGradient><clipPath
       clipPathUnits="userSpaceOnUse"
       id="clipPath60"><path
         d="m 3973.48,4872.85 c 57.85,-293.05 302.73,-427.3 494.92,-488.28 -271.45,5.08 -494.92,-140.51 -494.92,-140.51 128.79,-431.79 590.7,-372.3 866.13,-286.6 340.9,106.06 474.73,-92.15 474.73,-92.15 -31.57,637.58 -748.36,883.24 -748.36,883.24 -680.16,143.4 -327.35,813.68 -327.35,813.68 0,0 -362.11,-198.36 -265.15,-689.38 z"
/></clipPath><linearGradient
       x1="132.224"
       y1="174.44901"
       x2="164.532"
       y2="114.677"
       gradientUnits="userSpaceOnUse"
       gradientTransform="matrix(24.975,0,0,-24.975,1053.75,8373.31)"
       spreadMethod="pad"
       id="linearGradient76"><stop
         style="stop-opacity:1;stop-color:#005419"
         offset="0" /><stop
         style="stop-opacity:1;stop-color:#01631b"
         offset="0.0598663" /><stop
         style="stop-opacity:1;stop-color:#047d20"
         offset="0.183792" /><stop
         style="stop-opacity:1;stop-color:#069024"
         offset="0.311219" /><stop
         style="stop-opacity:1;stop-color:#079b26"
         offset="0.443103" /><stop
         style="stop-opacity:1;stop-color:#089f27"
         offset="0.586392" /><stop
         style="stop-opacity:1;stop-color:#089f27"
         offset="1" /></linearGradient><linearGradient
       x1="116.906"
       y1="174.927"
       x2="170.595"
       y2="174.927"
       gradientUnits="userSpaceOnUse"
       gradientTransform="matrix(24.975,0,0,-24.975,1053.75,8373.31)"
       spreadMethod="pad"
       id="linearGradient104"><stop
         style="stop-opacity:1;stop-color:#04387d"
         offset="0" /><stop
         style="stop-opacity:1;stop-color:#033b7b"
         offset="0.0120985" /><stop
         style="stop-opacity:1;stop-color:#025f6e"
         offset="0.145883" /><stop
         style="stop-opacity:1;stop-color:#017d64"
         offset="0.286854" /><stop
         style="stop-opacity:1;stop-color:#00945c"
         offset="0.435129" /><stop
         style="stop-opacity:1;stop-color:#00a556"
         offset="0.593831" /><stop
         style="stop-opacity:1;stop-color:#00ae53"
         offset="0.770249" /><stop
         style="stop-opacity:1;stop-color:#00b252"
         offset="1" /></linearGradient><clipPath
       clipPathUnits="userSpaceOnUse"
       id="clipPath114"><path
         d="m 3973.48,4244.06 c 102.85,-275.19 388.75,-302.18 638.2,-236.21 199.26,45 613.24,99.14 702.66,-142.54 -52.23,122.15 -200.67,153.13 -320.55,159.22 -126.09,5.35 -252.89,-13.75 -376.25,-42.85 -78.05,-15.23 -159.45,-32.5 -240.2,-28.05 -178.04,-2.26 -360.46,112.15 -403.86,290.43 z"
/></clipPath><linearGradient
       x1="116.906"
       y1="172.918"
       x2="170.595"
       y2="172.918"
       gradientUnits="userSpaceOnUse"
       gradientTransform="matrix(24.975,0,0,-24.975,1053.75,8373.31)"
       spreadMethod="pad"
       id="linearGradient120"><stop
         style="stop-opacity:1;stop-color:#215cb1"
         offset="0" /><stop
         style="stop-opacity:1;stop-color:#00e580"
         offset="1" /></linearGradient><clipPath
       clipPathUnits="userSpaceOnUse"
       id="clipPath130"><path
         d="m 5235.51,3485.9 c 355.04,279.06 207.26,899.3 -227.19,1116.91 -131.25,67.39 -274.45,109.26 -421.13,129.89 -60.04,8.43 -118.91,26.6 -174.03,51.75 -333.86,151.14 -318.63,491.45 -174.53,777.78 -168.63,-381.53 -99.72,-724.85 352.19,-805.39 148.36,-20.16 296.52,-60.79 429.77,-130.9 442.81,-225.63 628.55,-904.81 214.92,-1140.04 z"
/></clipPath><linearGradient
       x1="123.636"
       y1="154.12399"
       x2="176.677"
       y2="154.12399"
       gradientUnits="userSpaceOnUse"
       gradientTransform="matrix(24.975,0,0,-24.975,1053.75,8373.31)"
       spreadMethod="pad"
       id="linearGradient138"><stop
         style="stop-opacity:1;stop-color:#0c6c2f"
         offset="0" /><stop
         style="stop-opacity:1;stop-color:#b0de60"
         offset="0.548818" /><stop
         style="stop-opacity:1;stop-color:#b0de60"
         offset="1" /></linearGradient>
  </defs>
  <g
     transform="matrix(1.3333333,0,0,-1.3333333,-463.50696,793.43039)"><g
       transform="scale(0.1)"><g
           clip-path="url(#clipPath40)"><path
             d="M 4885.04,5948.05 C 4089.06,5998.09 3430.23,5340.08 3478.83,4544.41 3520,3870.74 4072.54,3331.09 4746.95,3304.45 c 232.58,-9.22 481.64,58.48 608.52,140 654.96,420.86 436.09,1117.85 330.08,1390.51 -106.06,272.74 -4.81,387.23 -4.81,387.23 -493.01,121.25 -588.12,-204.3 -590,-295 -60.51,117.73 -170.82,243.12 -503.63,286.56 -348.48,45.43 -348.48,348.48 -348.48,348.48 0,0 -362.11,-198.36 -265.15,-689.38 57.85,-293.05 302.73,-427.3 494.92,-488.28 -271.45,5.08 -494.92,-140.51 -494.92,-140.51 128.79,-431.79 590.7,-372.3 866.13,-286.6 340.9,106.06 474.73,-92.15 474.73,-92.15 -31.57,637.58 -748.36,883.24 -748.36,883.24 692.3,-85.27 863.79,-497.77 883.36,-836.48 13.2,-228.55 -139.22,-436.91 -361.84,-490.31 -122.11,-29.3 -251.21,-40.43 -384.38,-30.16 -599.72,46.17 -1085.74,526.41 -1137.61,1125.67 -66.68,770.58 576.72,1412.73 1347.69,1343.94 604.57,-53.91 1085.82,-549.61 1123.56,-1155.43 15.12,-242.3 -40.04,-470.94 -146.84,-667.66 -22.97,-42.34 -42.77,-86.28 -61.29,-130.78 -39.53,-94.76 -96.95,-192.85 -177.26,-292.77 307.42,258.91 495.9,654.69 469.96,1092.66 -39.3,662.42 -573.99,1199.22 -1236.29,1240.82 z"
             style="fill:url(#linearGradient50);fill-opacity:1;fill-rule:nonzero;stroke:none"/></g><g
           clip-path="url(#clipPath60)"><path
             d="m 3973.48,4872.85 c 57.85,-293.05 302.73,-427.3 494.92,-488.28 -271.45,5.08 -494.92,-140.51 -494.92,-140.51 128.79,-431.79 590.7,-372.3 866.13,-286.6 340.9,106.06 474.73,-92.15 474.73,-92.15 -31.57,637.58 -748.36,883.24 -748.36,883.24 -680.16,143.4 -327.35,813.68 -327.35,813.68 0,0 -362.11,-198.36 -265.15,-689.38 z"
             style="fill:url(#linearGradient76);fill-opacity:1;fill-rule:nonzero;stroke:none" /></g><g
           clip-path="url(#clipPath86)"><path
             d="m 3973.48,4244.06 c 0,0 92.38,-378.55 613.63,-255.04 663.36,157.23 727.23,-123.71 727.23,-123.71 0,0 -177.23,78.28 -395.43,-27.77 -218.17,-106.09 -809.07,-179.3 -945.43,406.52 z"
             style="fill:url(#linearGradient104);fill-opacity:1;fill-rule:nonzero;stroke:none" /></g><g
           clip-path="url(#clipPath114)"><path
             d="m 3973.48,4244.06 c 102.85,-275.19 388.75,-302.18 638.2,-236.21 199.26,45 613.24,99.14 702.66,-142.54 -52.23,122.15 -200.67,153.13 -320.55,159.22 -126.09,5.35 -252.89,-13.75 -376.25,-42.85 -78.05,-15.23 -159.45,-32.5 -240.2,-28.05 -178.04,-2.26 -360.46,112.15 -403.86,290.43 z"
             style="fill:url(#linearGradient120);fill-opacity:1;fill-rule:nonzero;stroke:none" /></g><g
           clip-path="url(#clipPath130)"><path
             d="m 5235.51,3485.9 c 355.04,279.06 207.26,899.3 -227.19,1116.91 -131.25,67.39 -274.45,109.26 -421.13,129.89 -60.04,8.43 -118.91,26.6 -174.03,51.75 -333.86,151.14 -318.63,491.45 -174.53,777.78 -168.63,-381.53 -99.72,-724.85 352.19,-805.39 148.36,-20.16 296.52,-60.79 429.77,-130.9 442.81,-225.63 628.55,-904.81 214.92,-1140.04 z"
             style="fill:url(#linearGradient138);fill-opacity:1;fill-rule:nonzero;stroke:none" /></g></g></g></svg>
